# xmcd
#
# Track frame offsets:
#	150
#	13246
#	29566
#	42588
#	60222
#	74866
#	93071
#	108545
#	122502
#	138584
#	157958
#	174197
#
# Disc length: 2500 seconds
#
# Revision: 0
# Processed by: cddbd v1.5.2PL0 Copyright (c) Steve Scherf et al.
# Submitted via: EasyCDDAExtractor 2010.6.0.0
#
DISCID=a009c20c
DTITLE=วรรธนา วีรยวรรธน - TURQUOISE
DYEAR=2001
DGENRE=Pop-Folk
TTITLE0=Butterfly falls in love
TTITLE1=ขอบฟ้า
TTITLE2=เธอยังคงมีฉัน
TTITLE3=ขาดอะไรในใจคน
TTITLE4=ฝันของเธอ
TTITLE5=คว้าฝัน
TTITLE6=เก็บไว้ให้เธอ
TTITLE7=วันจันทร์
TTITLE8=โลกใบเก่า
TTITLE9=เช้าแล้ว(วันใหม่)
TTITLE10=เธอเห็นท้องฟ้านั่นไหม
TTITLE11=Butterfly falls in love (Lullaby)
EXTD=YEAR: 2001\n
EXTT0=
EXTT1=
EXTT2=
EXTT3=
EXTT4=
EXTT5=
EXTT6=
EXTT7=
EXTT8=
EXTT9=
EXTT10=
EXTT11=
PLAYORDER=
